<svg height="512pt" viewBox="0 0 512.00037 512" width="512pt" xmlns="http://www.w3.org/2000/svg"><path d="m436 242c-41.398438 0-75 33.601562-75 75 0 24.902344 20.101562 45 45 45 24.902344 0 45-20.097656 45-45 0-8.398438-6.597656-15-15-15-8.398438 0-15 6.601562-15 15 0 8.402344-6.597656 15-15 15-8.398438 0-15-6.597656-15-15 0-24.898438 20.101562-45 45-45 24.902344 0 46 20.101562 46 45v90c0 41.398438-34.597656 75-76 75h-150c-24 0-43.199219-18.898438-44.699219-42.300781l42-92.398438c1.800781-3.601562 3.300781-6.898437 4.800781-9.898437.929688-1.863282 1.808594-3.640625 2.640626-5.402344h43.949218l13.078125 45.789062-25.089843 16.730469c-6.898438 4.601563-8.757813 13.921875-4.160157 20.800781 4.582031 6.890626 13.921875 8.730469 20.800781 4.160157l17.101563-11.410157 5.148437 18.050782c2.230469 7.777344 10.300782 12.589844 18.550782 10.308594 7.960937-2.289063 12.578125-10.589844 10.308594-18.550782l-1.070313-3.75 8.519531 5.480469c6.953125 4.492187 16.273438 2.472656 20.730469-4.488281 4.480469-6.980469 2.460937-16.261719-4.488281-20.730469l-37.242188-23.941406-16.449218-57.570313c-1.847657-6.4375-7.738282-10.878906-14.429688-10.878906h-46.46875c0-.03125.007812-.070312.007812-.097656.972657-7.800782 1.460938-17.371094 1.460938-29.902344 0-21.121094-1.417969-41.410156-4.25-60.859375 0-.050781-.007812-.089844-.007812-.140625h49.257812c6.460938 0 12.191406-4.128906 14.222656-10.25l16.589844-49.75h29.1875c8.289062 0 15-6.710938 15-15s-6.710938-15-15-15h-19.1875l3.40625-10.25c2.632812-7.867188-1.617188-16.367188-9.46875-18.96875-7.910156-2.671875-16.347656 1.640625-18.96875 9.46875l-.308594.921875-2.992187-4.492187c-4.601563-6.910157-13.898438-8.757813-20.800781-4.160157-6.890626 4.601563-8.757813 13.902344-4.160157 20.800781l15.929688 23.902344-14.257813 42.777344h-44.128906c-1.882812-8.050781-4.03125-15.9375-6.453125-23.667969-.277344-.890625-.558594-1.769531-.839844-2.660156-.410156-1.28125-.820312-2.550781-1.25-3.8125-.417969-1.25-.847656-2.5-1.277343-3.738281 0-.011719-.011719-.019532-.019532-.039063-.433594-1.261719-.882812-2.511719-1.339844-3.75-.453124-1.25-.910156-2.492187-1.382812-3.730469h-105c-5.027344 13.28125-9.199219 27.089844-12.539062 41.398438h-45.148438l-14.261719-42.777344 15.929688-23.902344c4.601562-6.898437 2.730469-16.199218-4.160157-20.800781-6.9375-4.597656-16.21875-2.75-20.800781 4.160157l-2.988281 4.492187-.308594-.921875c-2.621094-7.828125-11.0625-12.140625-18.972656-9.46875-7.847656 2.601562-12.097656 11.101562-9.46875 18.96875l3.410156 10.25h-19.191406c-8.289062 0-15 6.710938-15 15s6.710938 15 15 15h29.191406l16.589844 49.75c2.03125 6.121094 7.761719 10.25 14.21875 10.25h50.269531c-2.847656 19.492188-4.269531 39.832031-4.269531 61 0 12.589844.5 22.179688 1.480469 30h-47.480469c-6.699219 0-12.589844 4.441406-14.429688 10.878906l-16.449218 57.570313-37.238282 23.941406c-6.960937 4.46875-8.980468 13.75-4.492187 20.730469 4.390625 6.839844 13.609375 9.039062 20.71875 4.488281l8.53125-5.480469-1.070313 3.75c-5.460937 19.113282 23.359376 27.421875 28.859376 8.242188l5.152343-18.050782 17.097657 11.410157c6.871093 4.570312 16.203124 2.730469 20.800781-4.160157 4.601562-6.878906 2.742187-16.199218-4.160157-20.800781l-25.089843-16.730469 13.082031-45.789062h44.949219c.828125 1.761719 1.710937 3.539062 2.640625 5.402344 1.5 3 3 6.296875 4.796875 9.898437l42.300781 93c.601562 15.898438 6.300781 30 15 41.699219 13.800781 18.300781 35.699219 30 60 30h150c57.902344 0 106-47.101562 106-105v-90c0-41.398438-34.597656-75-76-75zm0 0" fill="#96b0ff"/><path d="m256 512h150c57.902344 0 106-47.101562 106-105v-90c0-41.398438-34.597656-75-76-75-41.398438 0-75 33.601562-75 75 0 24.902344 20.101562 45 45 45 24.902344 0 45-20.097656 45-45 0-8.398438-6.597656-15-15-15-8.398438 0-15 6.601562-15 15 0 8.402344-6.597656 15-15 15-8.398438 0-15-6.597656-15-15 0-24.898438 20.101562-45 45-45 24.902344 0 46 20.101562 46 45v90c0 41.398438-34.597656 75-76 75h-150c-24 0-43.199219-18.898438-44.699219-42.300781l42-92.398438c1.800781-3.601562 3.300781-6.898437 4.800781-9.898437.929688-1.863282 1.808594-3.640625 2.640626-5.402344h43.949218l13.078125 45.789062-25.089843 16.730469c-6.898438 4.601563-8.757813 13.921875-4.160157 20.800781 4.582031 6.890626 13.921875 8.730469 20.800781 4.160157l17.101563-11.410157 5.148437 18.050782c2.230469 7.777344 10.300782 12.589844 18.550782 10.308594 7.960937-2.289063 12.578125-10.589844 10.308594-18.550782l-1.070313-3.75 8.519531 5.480469c6.953125 4.492187 16.273438 2.472656 20.730469-4.488281 4.480469-6.980469 2.460937-16.261719-4.488281-20.730469l-37.242188-23.941406-16.449218-57.570313c-1.847657-6.4375-7.738282-10.878906-14.429688-10.878906h-46.46875c0-.03125.007812-.070312.007812-.097656.972657-7.800782 1.460938-17.371094 1.460938-29.902344 0-21.121094-1.417969-41.410156-4.25-60.859375 0-.050781-.007812-.089844-.007812-.140625h49.257812c6.460938 0 12.191406-4.128906 14.222656-10.25l16.589844-49.75h29.1875c8.289062 0 15-6.710938 15-15s-6.710938-15-15-15h-19.1875l3.40625-10.25c2.632812-7.867188-1.617188-16.367188-9.46875-18.96875-7.910156-2.671875-16.347656 1.640625-18.96875 9.46875l-.308594.921875-2.992187-4.492187c-4.601563-6.910157-13.898438-8.757813-20.800781-4.160157-6.890626 4.601563-8.757813 13.902344-4.160157 20.800781l15.929688 23.902344-14.257813 42.777344h-44.128906c-1.882812-8.050781-4.03125-15.9375-6.453125-23.667969-.277344-.890625-.558594-1.769531-.839844-2.660156-.410156-1.28125-.820312-2.550781-1.25-3.8125-.417969-1.25-.847656-2.5-1.277343-3.738281 0-.011719-.011719-.019532-.019532-.039063-.433594-1.261719-.882812-2.511719-1.339844-3.75-.453124-1.25-.910156-2.492187-1.382812-3.730469h-52.5v342.398438c13.800781 18.300781 35.699219 30 60 30zm0 0" fill="#5d81ff"/><path d="m279.699219 83.5-43.496094-58.601562c-7.5-15.296876-23.101563-24.898438-40.203125-24.898438-17.097656 0-32.699219 9.601562-38.699219 22.5-36 47.699219-51.300781 60.398438-51.300781 83.5 0 22.199219 15.902344 40.5 36.898438 44.398438l41.101562 54.601562c2.699219 3.898438 7.203125 6 12 6 4.800781 0 9.300781-2.101562 12.003906-6l41.097656-54.601562c21-3.898438 36.898438-22.199219 36.898438-44.398438 0-6.902344-1.5-13.800781-6.300781-22.5zm0 0" fill="#5d81ff"/><path d="m286 106c0 22.199219-15.898438 40.5-36.898438 44.398438l-41.097656 54.601562c-2.703125 3.898438-7.203125 6-12.003906 6v-211c17.101562 0 32.703125 9.601562 40.203125 24.898438l43.496094 58.601562c4.800781 8.699219 6.300781 15.597656 6.300781 22.5zm0 0" fill="#0155cb"/></svg>