<svg width="219" height="63" viewBox="0 0 219 63" fill="none" xmlns="http://www.w3.org/2000/svg">
<path d="M14.1185 21.8251L22.6805 35H17.0191L11.148 25.5993L7.75819 30.1424V35H2.90059V10.1179H7.75819V24.0267L17.1589 10.1179H22.0514L14.1185 21.8251ZM44.3838 21.4057V23.2928C44.3838 27.4631 43.5917 30.4919 42.0074 32.379C40.4465 34.2661 37.9303 35.2097 34.4589 35.2097C30.9875 35.2097 28.4714 34.2661 26.9104 32.379C25.3727 30.4919 24.6039 27.4282 24.6039 23.188V21.3707C24.6039 17.5033 25.3844 14.626 26.9454 12.7389C28.5296 10.8518 31.0225 9.90819 34.424 9.90819C37.8488 9.90819 40.3649 10.8634 41.9725 12.7738C43.58 14.6843 44.3838 17.5615 44.3838 21.4057ZM39.5262 23.188V21.8949C39.5262 19.6584 39.2466 17.8761 38.6875 16.5481C38.0351 15.0104 36.6373 14.2416 34.4939 14.2416C32.3272 14.2416 30.9176 15.0104 30.2653 16.5481C29.7294 17.8062 29.4615 19.5885 29.4615 21.8949V23.188C29.4615 26.1934 29.8809 28.2203 30.7196 29.2687C31.0458 29.7114 31.5234 30.0958 32.1524 30.422C32.8048 30.7248 33.5736 30.8763 34.4589 30.8763C35.3675 30.8763 36.1364 30.7248 36.7654 30.422C37.3944 30.1191 37.8837 29.7463 38.2332 29.3037C38.5826 28.861 38.8506 28.2786 39.0369 27.5563C39.3631 26.4147 39.5262 24.9586 39.5262 23.188ZM67.0138 20.1476L62.5406 29.5832C61.8882 30.8413 61.0728 31.4704 60.0943 31.4704C59.1391 31.4704 58.3353 30.8064 57.683 29.4784L53.1399 20.1476V35H48.2823V10.1179H53.07L60.0943 24.481L67.0837 10.1179H71.8714V35H67.0138V20.1476ZM81.8154 35H76.9578V10.1179H81.8154V35ZM107.001 10.1179V32.4838C107.001 33.2527 106.768 33.9166 106.302 34.4758C105.836 35.0116 105.289 35.2796 104.66 35.2796C103.052 35.2796 101.736 34.3477 100.711 32.4838L92.1138 19.0293V35H87.2562V10.1179H91.939L102.144 26.4031V10.1179H107.001ZM130.912 35H125.845L124.447 30.7015H116.095L114.732 35H109.665L117.633 12.2147C117.982 11.4226 118.366 10.8751 118.786 10.5722C119.228 10.2693 119.764 10.1179 120.393 10.1179C121.022 10.1179 121.523 10.2577 121.896 10.5372C122.292 10.8168 122.642 11.376 122.945 12.2147L130.912 35ZM123.329 26.6128L120.393 16.7578L117.318 26.6128H123.329ZM149.668 35H142.259C139.464 35 137.437 34.4641 136.179 33.3924C134.944 32.2974 134.327 30.5268 134.327 28.0805V10.1179H139.184V28.0805C139.184 29.059 139.405 29.7347 139.848 30.1074C140.291 30.4802 141.095 30.6666 142.259 30.6666H149.668V35Z" fill="white"/>
<path d="M2.20165 48.0051V56.1011H0.87367V48.0051H2.20165ZM7.26511 49.5777C7.75437 49.5777 8.18926 49.6825 8.5698 49.8922C8.95809 50.1019 9.26097 50.4125 9.47841 50.8241C9.70363 51.2357 9.81623 51.7327 9.81623 52.3152V56.1011H8.4999V52.5132C8.4999 51.9385 8.35623 51.4997 8.06889 51.1969C7.78155 50.8862 7.38937 50.7309 6.89235 50.7309C6.39533 50.7309 5.99926 50.8862 5.70416 51.1969C5.41682 51.4997 5.27315 51.9385 5.27315 52.5132V56.1011H3.94517V47.4809H5.27315V50.428C5.49836 50.1562 5.78182 49.9465 6.12352 49.799C6.47299 49.6514 6.85352 49.5777 7.26511 49.5777ZM12.8381 50.6144C13.0323 50.2882 13.2886 50.0359 13.607 49.8572C13.9331 49.6709 14.3175 49.5777 14.7602 49.5777V50.9522H14.4224C13.9021 50.9522 13.506 51.0843 13.2342 51.3483C12.9702 51.6123 12.8381 52.0705 12.8381 52.7229V56.1011H11.5102V49.6825H12.8381V50.6144ZM21.3367 56.2059C20.8319 56.2059 20.3776 56.1166 19.9737 55.938C19.5777 55.7516 19.2632 55.5031 19.0302 55.1924C18.7972 54.874 18.6729 54.5207 18.6574 54.1324H20.032C20.0553 54.4042 20.1834 54.6333 20.4164 54.8197C20.6571 54.9983 20.9561 55.0876 21.3134 55.0876C21.6861 55.0876 21.9735 55.0177 22.1754 54.8779C22.3851 54.7304 22.4899 54.544 22.4899 54.3188C22.4899 54.078 22.3734 53.8994 22.1404 53.7829C21.9152 53.6664 21.5541 53.5383 21.0571 53.3985C20.5756 53.2665 20.1834 53.1384 19.8805 53.0141C19.5777 52.8898 19.3136 52.6996 19.0884 52.4433C18.871 52.187 18.7622 51.8492 18.7622 51.4298C18.7622 51.0881 18.8632 50.7775 19.0651 50.4979C19.267 50.2106 19.5544 49.9854 19.9271 49.8223C20.3077 49.6592 20.7426 49.5777 21.2318 49.5777C21.9618 49.5777 22.5482 49.764 22.9908 50.1368C23.4412 50.5018 23.682 51.0027 23.713 51.6395H22.3851C22.3618 51.3522 22.2453 51.1231 22.0356 50.9522C21.8259 50.7814 21.5425 50.696 21.1852 50.696C20.8358 50.696 20.5678 50.762 20.3815 50.894C20.1951 51.026 20.1019 51.2007 20.1019 51.4182C20.1019 51.589 20.164 51.7327 20.2883 51.8492C20.4125 51.9657 20.564 52.0589 20.7426 52.1288C20.9212 52.1909 21.1852 52.2724 21.5347 52.3734C22.0007 52.4977 22.3812 52.6258 22.6763 52.7578C22.9792 52.8821 23.2393 53.0685 23.4568 53.317C23.6742 53.5655 23.7868 53.8955 23.7946 54.3071C23.7946 54.6721 23.6936 54.9983 23.4917 55.2856C23.2898 55.573 23.0025 55.7982 22.6297 55.9613C22.2647 56.1244 21.8337 56.2059 21.3367 56.2059ZM26.7788 50.7659V54.3188C26.7788 54.5595 26.8332 54.7343 26.9419 54.843C27.0584 54.9439 27.2525 54.9944 27.5243 54.9944H28.3398V56.1011H27.2914C26.6934 56.1011 26.2352 55.9613 25.9168 55.6817C25.5984 55.4021 25.4392 54.9478 25.4392 54.3188V50.7659H24.682V49.6825H25.4392V48.0866H26.7788V49.6825H28.3398V50.7659H26.7788ZM29.1211 52.8627C29.1211 52.2181 29.2531 51.6473 29.5171 51.1503C29.7889 50.6532 30.1539 50.2688 30.6121 49.997C31.0781 49.7174 31.5906 49.5777 32.1498 49.5777C32.6546 49.5777 33.0934 49.6786 33.4661 49.8805C33.8467 50.0747 34.1495 50.3193 34.3747 50.6144V49.6825H35.7144V56.1011H34.3747V55.1459C34.1495 55.4487 33.8428 55.7011 33.4545 55.903C33.0662 56.1049 32.6235 56.2059 32.1265 56.2059C31.5751 56.2059 31.0703 56.0661 30.6121 55.7865C30.1539 55.4992 29.7889 55.1031 29.5171 54.5984C29.2531 54.0858 29.1211 53.5072 29.1211 52.8627ZM34.3747 52.886C34.3747 52.4433 34.2815 52.0589 34.0952 51.7327C33.9165 51.4065 33.6797 51.158 33.3846 50.9872C33.0895 50.8163 32.7711 50.7309 32.4294 50.7309C32.0877 50.7309 31.7693 50.8163 31.4742 50.9872C31.179 51.1503 30.9383 51.3949 30.7519 51.7211C30.5733 52.0395 30.484 52.42 30.484 52.8627C30.484 53.3053 30.5733 53.6936 30.7519 54.0276C30.9383 54.3615 31.179 54.6178 31.4742 54.7964C31.777 54.9672 32.0954 55.0527 32.4294 55.0527C32.7711 55.0527 33.0895 54.9672 33.3846 54.7964C33.6797 54.6255 33.9165 54.377 34.0952 54.0509C34.2815 53.7169 34.3747 53.3286 34.3747 52.886ZM38.7866 50.6144C38.9807 50.2882 39.237 50.0359 39.5554 49.8572C39.8816 49.6709 40.266 49.5777 40.7087 49.5777V50.9522H40.3708C39.8505 50.9522 39.4545 51.0843 39.1827 51.3483C38.9186 51.6123 38.7866 52.0705 38.7866 52.7229V56.1011H37.4586V49.6825H38.7866V50.6144ZM44.4688 52.8976L47.4276 56.1011H45.6337L43.2573 53.3403V56.1011H41.9293V47.4809H43.2573V52.4899L45.5871 49.6825H47.4276L44.4688 52.8976ZM54.2622 52.7345C54.2622 52.9753 54.2467 53.1927 54.2156 53.3869H49.3114C49.3502 53.8994 49.5405 54.311 49.8822 54.6217C50.2239 54.9323 50.6433 55.0876 51.1403 55.0876C51.8548 55.0876 52.3595 54.7886 52.6546 54.1906H54.0875C53.8933 54.7809 53.54 55.2662 53.0274 55.6468C52.5226 56.0195 51.8936 56.2059 51.1403 56.2059C50.5268 56.2059 49.9754 56.07 49.4861 55.7982C49.0046 55.5186 48.6241 55.1303 48.3445 54.6333C48.0727 54.1285 47.9368 53.5461 47.9368 52.886C47.9368 52.2259 48.0688 51.6473 48.3329 51.1503C48.6047 50.6455 48.9813 50.2572 49.4628 49.9854C49.9521 49.7136 50.5112 49.5777 51.1403 49.5777C51.746 49.5777 52.2858 49.7097 52.7595 49.9737C53.2332 50.2378 53.6021 50.6105 53.8661 51.092C54.1302 51.5657 54.2622 52.1132 54.2622 52.7345ZM52.876 52.3152C52.8682 51.8259 52.6935 51.4337 52.3518 51.1386C52.0101 50.8435 51.5868 50.696 51.082 50.696C50.6238 50.696 50.2317 50.8435 49.9055 51.1386C49.5793 51.426 49.3852 51.8181 49.3231 52.3152H52.876ZM56.897 50.6144C57.0912 50.2882 57.3475 50.0359 57.6659 49.8572C57.992 49.6709 58.3765 49.5777 58.8191 49.5777V50.9522H58.4813C57.961 50.9522 57.5649 51.0843 57.2931 51.3483C57.0291 51.6123 56.897 52.0705 56.897 52.7229V56.1011H55.5691V49.6825H56.897V50.6144ZM68.7272 50.4164C68.7272 50.828 68.6301 51.2163 68.436 51.5813C68.2418 51.9463 67.9312 52.2453 67.504 52.4782C67.0769 52.7035 66.5294 52.8161 65.8615 52.8161H64.3938V56.1011H63.0658V48.0051H65.8615C66.4828 48.0051 67.007 48.1138 67.4341 48.3312C67.869 48.5409 68.1913 48.8282 68.401 49.1932C68.6185 49.5582 68.7272 49.966 68.7272 50.4164ZM65.8615 51.7327C66.3663 51.7327 66.743 51.6201 66.9915 51.3949C67.24 51.1619 67.3643 50.8357 67.3643 50.4164C67.3643 49.5311 66.8633 49.0884 65.8615 49.0884H64.3938V51.7327H65.8615ZM69.5511 52.8627C69.5511 52.2181 69.6831 51.6473 69.9471 51.1503C70.2189 50.6532 70.5839 50.2688 71.0421 49.997C71.5081 49.7174 72.0206 49.5777 72.5798 49.5777C73.0846 49.5777 73.5234 49.6786 73.8961 49.8805C74.2767 50.0747 74.5795 50.3193 74.8047 50.6144V49.6825H76.1444V56.1011H74.8047V55.1459C74.5795 55.4487 74.2728 55.7011 73.8845 55.903C73.4962 56.1049 73.0535 56.2059 72.5565 56.2059C72.0051 56.2059 71.5003 56.0661 71.0421 55.7865C70.5839 55.4992 70.2189 55.1031 69.9471 54.5984C69.6831 54.0858 69.5511 53.5072 69.5511 52.8627ZM74.8047 52.886C74.8047 52.4433 74.7115 52.0589 74.5252 51.7327C74.3465 51.4065 74.1097 51.158 73.8146 50.9872C73.5195 50.8163 73.2011 50.7309 72.8594 50.7309C72.5177 50.7309 72.1993 50.8163 71.9042 50.9872C71.609 51.1503 71.3683 51.3949 71.1819 51.7211C71.0033 52.0395 70.914 52.42 70.914 52.8627C70.914 53.3053 71.0033 53.6936 71.1819 54.0276C71.3683 54.3615 71.609 54.6178 71.9042 54.7964C72.207 54.9672 72.5254 55.0527 72.8594 55.0527C73.2011 55.0527 73.5195 54.9672 73.8146 54.7964C74.1097 54.6255 74.3465 54.377 74.5252 54.0509C74.7115 53.7169 74.8047 53.3286 74.8047 52.886ZM79.2166 50.6144C79.4107 50.2882 79.667 50.0359 79.9854 49.8572C80.3116 49.6709 80.696 49.5777 81.1387 49.5777V50.9522H80.8008C80.2805 50.9522 79.8845 51.0843 79.6127 51.3483C79.3486 51.6123 79.2166 52.0705 79.2166 52.7229V56.1011H77.8886V49.6825H79.2166V50.6144ZM83.9087 50.7659V54.3188C83.9087 54.5595 83.963 54.7343 84.0717 54.843C84.1882 54.9439 84.3824 54.9944 84.6542 54.9944H85.4696V56.1011H84.4212C83.8232 56.1011 83.365 55.9613 83.0466 55.6817C82.7282 55.4021 82.569 54.9478 82.569 54.3188V50.7659H81.8118V49.6825H82.569V48.0866H83.9087V49.6825H85.4696V50.7659H83.9087ZM89.932 49.5777C90.4368 49.5777 90.8872 49.6825 91.2833 49.8922C91.6871 50.1019 92.0016 50.4125 92.2268 50.8241C92.452 51.2357 92.5646 51.7327 92.5646 52.3152V56.1011H91.2483V52.5132C91.2483 51.9385 91.1046 51.4997 90.8173 51.1969C90.53 50.8862 90.1378 50.7309 89.6408 50.7309C89.1437 50.7309 88.7477 50.8862 88.4526 51.1969C88.1652 51.4997 88.0215 51.9385 88.0215 52.5132V56.1011H86.6936V49.6825H88.0215V50.4164C88.239 50.1523 88.5147 49.9465 88.8486 49.799C89.1903 49.6514 89.5514 49.5777 89.932 49.5777ZM100.141 52.7345C100.141 52.9753 100.126 53.1927 100.095 53.3869H95.1905C95.2293 53.8994 95.4196 54.311 95.7613 54.6217C96.103 54.9323 96.5223 55.0876 97.0193 55.0876C97.7338 55.0876 98.2386 54.7886 98.5337 54.1906H99.9665C99.7724 54.7809 99.419 55.2662 98.9065 55.6468C98.4017 56.0195 97.7726 56.2059 97.0193 56.2059C96.4058 56.2059 95.8545 56.07 95.3652 55.7982C94.8837 55.5186 94.5032 55.1303 94.2236 54.6333C93.9518 54.1285 93.8159 53.5461 93.8159 52.886C93.8159 52.2259 93.9479 51.6473 94.212 51.1503C94.4838 50.6455 94.8604 50.2572 95.3419 49.9854C95.8312 49.7136 96.3903 49.5777 97.0193 49.5777C97.6251 49.5777 98.1648 49.7097 98.6386 49.9737C99.1123 50.2378 99.4812 50.6105 99.7452 51.092C100.009 51.5657 100.141 52.1132 100.141 52.7345ZM98.755 52.3152C98.7473 51.8259 98.5725 51.4337 98.2308 51.1386C97.8891 50.8435 97.4659 50.696 96.9611 50.696C96.5029 50.696 96.1107 50.8435 95.7846 51.1386C95.4584 51.426 95.2642 51.8181 95.2021 52.3152H98.755ZM102.776 50.6144C102.97 50.2882 103.227 50.0359 103.545 49.8572C103.871 49.6709 104.256 49.5777 104.698 49.5777V50.9522H104.36C103.84 50.9522 103.444 51.0843 103.172 51.3483C102.908 51.6123 102.776 52.0705 102.776 52.7229V56.1011H101.448V49.6825H102.776V50.6144ZM109.62 48.8321C109.38 48.8321 109.178 48.7506 109.015 48.5875C108.852 48.4244 108.77 48.2225 108.77 47.9818C108.77 47.741 108.852 47.5391 109.015 47.376C109.178 47.2129 109.38 47.1314 109.62 47.1314C109.853 47.1314 110.052 47.2129 110.215 47.376C110.378 47.5391 110.459 47.741 110.459 47.9818C110.459 48.2225 110.378 48.4244 110.215 48.5875C110.052 48.7506 109.853 48.8321 109.62 48.8321ZM110.273 49.6825V56.1011H108.945V49.6825H110.273ZM115.255 49.5777C115.76 49.5777 116.21 49.6825 116.606 49.8922C117.01 50.1019 117.324 50.4125 117.55 50.8241C117.775 51.2357 117.887 51.7327 117.887 52.3152V56.1011H116.571V52.5132C116.571 51.9385 116.427 51.4997 116.14 51.1969C115.853 50.8862 115.461 50.7309 114.964 50.7309C114.467 50.7309 114.07 50.8862 113.775 51.1969C113.488 51.4997 113.344 51.9385 113.344 52.5132V56.1011H112.016V49.6825H113.344V50.4164C113.562 50.1523 113.837 49.9465 114.171 49.799C114.513 49.6514 114.874 49.5777 115.255 49.5777ZM122.165 52.8627C122.165 52.2181 122.297 51.6473 122.561 51.1503C122.833 50.6532 123.198 50.2688 123.656 49.997C124.122 49.7174 124.638 49.5777 125.205 49.5777C125.624 49.5777 126.036 49.6709 126.44 49.8572C126.851 50.0359 127.178 50.2766 127.418 50.5795V47.4809H128.758V56.1011H127.418V55.1342C127.201 55.4448 126.898 55.7011 126.51 55.903C126.129 56.1049 125.69 56.2059 125.193 56.2059C124.634 56.2059 124.122 56.0661 123.656 55.7865C123.198 55.4992 122.833 55.1031 122.561 54.5984C122.297 54.0858 122.165 53.5072 122.165 52.8627ZM127.418 52.886C127.418 52.4433 127.325 52.0589 127.139 51.7327C126.96 51.4065 126.723 51.158 126.428 50.9872C126.133 50.8163 125.815 50.7309 125.473 50.7309C125.131 50.7309 124.813 50.8163 124.518 50.9872C124.223 51.1503 123.982 51.3949 123.796 51.7211C123.617 52.0395 123.528 52.42 123.528 52.8627C123.528 53.3053 123.617 53.6936 123.796 54.0276C123.982 54.3615 124.223 54.6178 124.518 54.7964C124.821 54.9672 125.139 55.0527 125.473 55.0527C125.815 55.0527 126.133 54.9672 126.428 54.7964C126.723 54.6255 126.96 54.377 127.139 54.0509C127.325 53.7169 127.418 53.3286 127.418 52.886ZM136.385 52.7345C136.385 52.9753 136.369 53.1927 136.338 53.3869H131.434C131.473 53.8994 131.663 54.311 132.005 54.6217C132.347 54.9323 132.766 55.0876 133.263 55.0876C133.977 55.0876 134.482 54.7886 134.777 54.1906H136.21C136.016 54.7809 135.663 55.2662 135.15 55.6468C134.645 56.0195 134.016 56.2059 133.263 56.2059C132.649 56.2059 132.098 56.07 131.609 55.7982C131.127 55.5186 130.747 55.1303 130.467 54.6333C130.195 54.1285 130.06 53.5461 130.06 52.886C130.06 52.2259 130.192 51.6473 130.456 51.1503C130.727 50.6455 131.104 50.2572 131.586 49.9854C132.075 49.7136 132.634 49.5777 133.263 49.5777C133.869 49.5777 134.408 49.7097 134.882 49.9737C135.356 50.2378 135.725 50.6105 135.989 51.092C136.253 51.5657 136.385 52.1132 136.385 52.7345ZM134.999 52.3152C134.991 51.8259 134.816 51.4337 134.474 51.1386C134.133 50.8435 133.71 50.696 133.205 50.696C132.747 50.696 132.354 50.8435 132.028 51.1386C131.702 51.426 131.508 51.8181 131.446 52.3152H134.999ZM139.02 50.6144C139.214 50.2882 139.47 50.0359 139.789 49.8572C140.115 49.6709 140.499 49.5777 140.942 49.5777V50.9522H140.604C140.084 50.9522 139.688 51.0843 139.416 51.3483C139.152 51.6123 139.02 52.0705 139.02 52.7229V56.1011H137.692V49.6825H139.02V50.6144ZM146.516 48.0051V56.1011H145.189V48.0051H146.516ZM153.49 48.0051V49.0884H151.335V56.1011H150.007V49.0884H147.841V48.0051H153.49Z" fill="#E1E4EB"/>
<path d="M187.936 62.516C205.092 62.516 219 48.6082 219 31.4521C219 14.296 205.092 0.388298 187.936 0.388298C170.78 0.388298 156.872 14.296 156.872 31.4521C156.872 48.6082 170.78 62.516 187.936 62.516Z" fill="#B3D8FC" fill-opacity="0.9"/>
<path d="M187.936 31.4521V62.5159C188.868 61.9452 205.342 51.4522 205.342 31.4521H187.936Z" fill="#4DA3F8"/>
<path d="M187.936 0.388298V31.4521H205.342C205.342 11.452 188.868 0.959062 187.936 0.388298V0.388298Z" fill="#4DA3F8" fill-opacity="0.9"/>
<path d="M187.936 0.388298C188.868 0.959062 205.342 11.452 205.342 31.4521H219C219 14.2962 205.092 0.388298 187.936 0.388298V0.388298Z" fill="#2690F7" fill-opacity="0.9"/>
<path d="M205.342 31.4521C205.342 51.4522 188.868 61.9452 187.936 62.5159C205.092 62.5159 219 48.6079 219 31.4521H205.342Z" fill="#2690F7"/>
<path d="M187.936 31.4521V62.5159C187.004 61.9452 170.53 51.4522 170.53 31.4521H187.936Z" fill="#80BEFA"/>
<path d="M187.936 0.388298V31.4521H170.53C170.53 11.452 187.004 0.959062 187.936 0.388298V0.388298Z" fill="#80BEFA" fill-opacity="0.9"/>
<path d="M170.53 31.4521C170.53 51.4522 187.004 61.9452 187.936 62.5159C170.78 62.5159 156.872 48.608 156.872 31.4521H170.53Z" fill="#B3D8FC"/>
</svg>
